<?xml version="1.0" encoding="UTF-8"?>
<svg id="Layer_1" xmlns="http://www.w3.org/2000/svg" viewBox="0 0 974 638">
  <defs>
    <style>
      .cls-1 {
        fill: #f9b83e;
      }

      .cls-2 {
        stroke: #000;
      }

      .cls-2, .cls-3, .cls-4, .cls-5, .cls-6, .cls-7, .cls-8, .cls-9, .cls-10, .cls-11 {
        fill: none;
      }

      .cls-2, .cls-3, .cls-4, .cls-5, .cls-6, .cls-9, .cls-10 {
        stroke-linejoin: round;
      }

      .cls-2, .cls-3, .cls-4, .cls-6, .cls-9, .cls-10 {
        stroke-linecap: round;
      }

      .cls-2, .cls-6, .cls-9 {
        stroke-width: 2.43px;
      }

      .cls-12, .cls-13 {
        fill: #545454;
      }

      .cls-14 {
        fill: #f4f4f4;
      }

      .cls-15 {
        fill: #e4e2e0;
      }

      .cls-15, .cls-16, .cls-17, .cls-8, .cls-18, .cls-11 {
        stroke-miterlimit: 10;
      }

      .cls-15, .cls-17, .cls-18 {
        stroke: #c9c4c2;
      }

      .cls-16 {
        fill: #eee5f6;
      }

      .cls-16, .cls-3, .cls-7, .cls-11 {
        stroke-width: 2px;
      }

      .cls-16, .cls-9, .cls-10 {
        stroke: #8c4fc2;
      }

      .cls-19 {
        fill: #8c4fc2;
      }

      .cls-17 {
        fill: #efeded;
      }

      .cls-20 {
        fill: #ccc;
      }

      .cls-21 {
        fill: #130b19;
      }

      .cls-3, .cls-7, .cls-11 {
        stroke: #fff;
      }

      .cls-22 {
        fill: #0b0b0b;
        opacity: .2;
      }

      .cls-22, .cls-13 {
        isolation: isolate;
      }

      .cls-23, .cls-18 {
        fill: #fff;
      }

      .cls-4 {
        stroke: #404040;
      }

      .cls-5 {
        stroke: #e8dcf3;
        stroke-width: 2.11px;
      }

      .cls-6, .cls-8 {
        stroke: #008f67;
      }

      .cls-13 {
        opacity: .3;
      }

      .cls-8 {
        stroke-width: 2.4px;
      }

      .cls-24 {
        font-family: Inter-SemiBold, Inter;
        font-size: 30px;
        font-variation-settings: 'wght' 600, 'slnt' 0;
        font-weight: 600;
      }

      .cls-24, .cls-25 {
        fill: #008f67;
      }

      .cls-10 {
        stroke-width: 2.5px;
      }
    </style>
  </defs>
  <g>
    <path class="cls-9" d="M159.7,79.07C180.76,22.97,243.3-5.44,299.41,15.61c50.66,19.01,78.74,71.86,68.21,123.24"/>
    <polygon class="cls-19" points="362.86 155.32 359.79 129.41 367.77 137.57 378.81 134.67 362.86 155.32"/>
  </g>
  <polygon class="cls-16" points="546 181.24 460.91 220.51 460.91 558.4 546 612 546 181.24"/>
  <circle class="cls-23" cx="477.5" cy="407.5" r="15.5"/>
  <path class="cls-16" d="M237,79.68H13.68v223.32h223.32V79.68Z"/>
  <g>
    <path class="cls-5" d="M74.45,90.54v201.59"/>
    <path class="cls-5" d="M125.32,90.54v201.59"/>
    <path class="cls-5" d="M176.24,90.54v201.59"/>
    <path class="cls-5" d="M226.13,141.31H24.54"/>
    <path class="cls-5" d="M226.13,191.72H24.54"/>
    <path class="cls-5" d="M226.13,242.18H24.54"/>
  </g>
  <polygon class="cls-16" points="408.23 140.64 303.68 185.33 303.68 570 408.23 631.02 408.23 140.64"/>
  <polygon class="cls-16" points="664 217.42 593.66 250.48 593.66 535.04 664 580.18 664 217.42"/>
  <polygon class="cls-16" points="771 254.46 709.66 280.69 709.66 506.38 771 542.18 771 254.46"/>
  <g>
    <path class="cls-1" d="M72.16,179.76c-16.96-11.53-18.57-24.6-18.99-41.77l-.04-.93c-.35-14.03-1.67-15.1-10.32-21.88l-.03-.04c-3.61-2.46-4.18-5.64-3.5-7.82.79-2.54,3.14-4.07,6.18-4.07,2.57,0,5.5,1.11,8.43,3.25,9.53,6.89,12.39,13.6,12.78,29.92l.07,2.75c.32,14,.5,21.71,13.74,31.64l-8.32,8.96Z"/>
    <path class="cls-13" d="M72.2,179.79c-2.29-1.54-4.35-3.18-6.14-4.86-1.75-1.61-3.32-3.28-4.64-5.03l-.03-.04h.03s1.47.43,3.32.75c1.75.29,4.21.5,6.25-.04,1.1-.32,2.75-.89,4.1-2.07.82-.68,1.14-1.25,1.14-1.25,1.36,1.25,2.79,2.43,4.25,3.5l-8.28,9.03Z"/>
    <path class="cls-1" d="M135.65,252.7c-4.68,0-8.57-3.36-9.32-7.96l-.93-5.89c-.68.04-1.39.07-2.07.07-14.78,0-23.07-10.32-23.17-10.43-6.46,7.18-15.1,14.78-15.21,14.85h.03c4,0,7.21,3.25,7.21,7.25v2.07h-18.85c-1.07-4.46-2.11-8.68-3.11-12.74-8.64-34.95-13.85-56.09,8.46-71.27,6.18-4.22,12.64-6.36,19.17-6.36,8.28,0,21.24,3.57,36.14,20.53,9.92,11.28,33.63,42.88,33.88,43.2,5-7.53,12.71-15.6,16.18-15.6.14,0,.29,0,.39.03,1.5.32,3.39,13.28,3.46,13.82,5.82,3.07,8.28,11,8.28,11.07,0,0,2,.89,3.39,1.46,1.18.5,2.03,1.57,2.21,2.86.25,1.75-.14,3.79-1.18,6.11-1.86,4.18-6.03,6.89-10.6,6.89h-54.38s0,.04,0,.04Z"/>
    <path class="cls-13" d="M123.33,238.95c-14.78,0-23.07-10.32-23.17-10.43.07-.11,8.32-8.79,11.85-19.39,1.11.82,1.54,2.93,2.07,5.57,1.11,5.28,2.61,12.53,10.43,16.57l.89,7.61c-.68.03-1.39.07-2.07.07Z"/>
    <path class="cls-12" d="M187.99,224.35c-1.21-.47-2.5-.71-3.78-.71-.93,0-1.86.14-2.75.39.61-4.57,1.64-9.1,3.1-13.49,1.47.32,3.36,13.25,3.43,13.82Z"/>
    <path class="cls-14" d="M143.22,224.07c-.46,0-.85-.11-1.17-.32-2.75-1.86.1-11.1,6.89-22.49,2.68,3.43,5.61,7.21,8.68,11.21-5.96,7.18-11.49,11.61-14.39,11.61Z"/>
    <path class="cls-14" d="M126.23,207.07c-.54,0-1.03-.1-1.46-.32-4.18-2.21-2.14-14.5,4.82-28.6,1.5,1.5,3,3.07,4.47,4.75,2,2.25,4.68,5.5,7.96,9.64-5.93,8.96-12,14.53-15.78,14.53Z"/>
    <path class="cls-4" d="M77.63,168.62c-3.89,2.71-6.46,5.6-8.79,8.75"/>
    <path class="cls-4" d="M125.36,238.46l-1.39-13.82"/>
    <path class="cls-4" d="M100.16,228.49c5.89-6.57,12.1-14.85,13.53-21.43,1.89-8.75-.75-16.92-3.75-22.31"/>
    <path class="cls-4" d="M154.11,234.03l-1.71,9.32h14.57c4.35,0,7.89,3.54,7.89,7.89v.75"/>
    <path class="cls-12" d="M201.95,241.03s-2.93-.43-3.25-1.47c-.39-1.18,1.57-2.35,1.61-2.35.89.57,1.46,1.5,1.61,2.5.03.47.07.9.03,1.32Z"/>
    <path class="cls-21" d="M191.1,236.46c.57,0,1.03-.47,1.03-1.04s-.46-1.03-1.03-1.03-1.03.46-1.03,1.03.46,1.04,1.03,1.04Z"/>
  </g>
  <path class="cls-20" d="M132.37,607.01h-9.17c-.04.1-.09.19-.15.27l8.96-.04h0c.08,0,.19-.02.27-.11.04-.04.06-.08.08-.12"/>
  <g>
    <path class="cls-23" d="M356,492c-1.14,0-2.25.14-3.31.38-3.19-4.82-8.45-8.6-14.84-10.54-.02,0-.03-.03-.04-.04-1.15-11.64-13.15-20.8-27.79-20.8-1.71,0-3.38.13-5.01.36v108.92s.02.05.05.05c1.61.24,3.27.36,4.96.36,14.65,0,26.65-9.16,27.79-20.79,0-.02.02-.04.04-.05,10.6-3.21,18.16-11.49,18.16-21.21,0-2.33-.44-4.58-1.25-6.7.41.03.83.06,1.25.06,8.28,0,15-6.72,15-15s-6.72-15-15-15Z"/>
    <path class="cls-23" d="M305.15,209.05c2.26-.37,4.58-.57,6.96-.57,20.35,0,37.01,14.38,38.61,32.66.01.02.03.06.06.07,14.73,5.04,25.22,18.04,25.22,33.3,0,7.43-2.49,14.33-6.75,20.04-.02.03-.02.07,0,.1,4.26,5.71,6.75,12.61,6.75,20.04,0,15.26-10.49,28.26-25.22,33.3-.03,0-.05.04-.06.08-1.59,18.27-18.27,32.65-38.61,32.65-2.35,0-4.65-.19-6.89-.56-.03,0-.07-.04-.07-.08v-171.01h0Z"/>
    <path class="cls-2" d="M332.05,350.05l-26.9-26.35"/>
    <path class="cls-6" d="M325,557l-19.85-14.3"/>
    <path class="cls-2" d="M332.65,229.64l-27.51,27.51"/>
    <path class="cls-6" d="M354.8,265.04l-14.74,14.13h-34.92"/>
    <path class="cls-6" d="M492,246.48l-24.94,26.52h-59.06"/>
    <path class="cls-2" d="M355,331l-14.8-24.69h-35.05"/>
    <path class="cls-19" d="M324.42,350.05c0-4.21,3.42-7.62,7.62-7.62s7.62,3.41,7.62,7.62-3.41,7.62-7.62,7.62h0c-4.21,0-7.62-3.41-7.62-7.62h0Z"/>
    <path class="cls-19" d="M325.03,229.64c0,4.21,3.41,7.62,7.62,7.62s7.62-3.42,7.62-7.62-3.42-7.62-7.62-7.62-7.62,3.41-7.62,7.62h0Z"/>
    <path class="cls-19" d="M374.74,182.44c0,4.21,3.41,7.62,7.62,7.62s7.62-3.42,7.62-7.62-3.42-7.62-7.62-7.62-7.62,3.41-7.62,7.62h0Z"/>
    <path class="cls-19" d="M375.68,215.58c0,4.21,3.41,7.62,7.62,7.62s7.62-3.42,7.62-7.62-3.42-7.62-7.62-7.62-7.62,3.41-7.62,7.62h0Z"/>
    <path class="cls-19" d="M375.68,248.89c0,4.21,3.41,7.62,7.62,7.62s7.62-3.42,7.62-7.62-3.42-7.62-7.62-7.62-7.62,3.41-7.62,7.62h0Z"/>
    <path class="cls-19" d="M374.74,290.44c0,4.21,3.41,7.62,7.62,7.62s7.62-3.42,7.62-7.62-3.42-7.62-7.62-7.62-7.62,3.41-7.62,7.62h0Z"/>
    <path class="cls-19" d="M375.68,323.58c0,4.21,3.41,7.62,7.62,7.62s7.62-3.42,7.62-7.62-3.42-7.62-7.62-7.62-7.62,3.41-7.62,7.62h0Z"/>
    <path class="cls-19" d="M375.68,356.89c0,4.21,3.41,7.62,7.62,7.62s7.62-3.42,7.62-7.62-3.42-7.62-7.62-7.62-7.62,3.41-7.62,7.62h0Z"/>
    <path class="cls-19" d="M374.74,399.44c0,4.21,3.41,7.62,7.62,7.62s7.62-3.42,7.62-7.62-3.42-7.62-7.62-7.62-7.62,3.41-7.62,7.62h0Z"/>
    <path class="cls-19" d="M375.68,432.58c0,4.21,3.41,7.62,7.62,7.62s7.62-3.42,7.62-7.62-3.42-7.62-7.62-7.62-7.62,3.41-7.62,7.62h0Z"/>
    <path class="cls-19" d="M375.68,465.89c0,4.21,3.41,7.62,7.62,7.62s7.62-3.42,7.62-7.62-3.42-7.62-7.62-7.62-7.62,3.41-7.62,7.62h0Z"/>
    <path class="cls-19" d="M346.74,265.44c0,4.21,3.41,7.62,7.62,7.62s7.62-3.42,7.62-7.62-3.42-7.62-7.62-7.62-7.62,3.41-7.62,7.62h0Z"/>
    <path class="cls-19" d="M347.68,331.89c0,4.21,3.41,7.62,7.62,7.62s7.62-3.42,7.62-7.62-3.42-7.62-7.62-7.62-7.62,3.41-7.62,7.62h0Z"/>
    <path class="cls-19" d="M348.4,373.44c0,4.21,3.41,7.62,7.62,7.62s7.62-3.42,7.62-7.62-3.42-7.62-7.62-7.62-7.62,3.41-7.62,7.62h0Z"/>
    <path class="cls-19" d="M348.4,406.58c0,4.21,3.41,7.62,7.62,7.62s7.62-3.42,7.62-7.62-3.42-7.62-7.62-7.62-7.62,3.41-7.62,7.62h0Z"/>
    <path class="cls-19" d="M348.4,439.89c0,4.21,3.41,7.62,7.62,7.62s7.62-3.42,7.62-7.62-3.42-7.62-7.62-7.62-7.62,3.41-7.62,7.62h0Z"/>
    <path class="cls-19" d="M316.68,450.89c0,4.21,3.41,7.62,7.62,7.62s7.62-3.42,7.62-7.62-3.42-7.62-7.62-7.62-7.62,3.41-7.62,7.62h0Z"/>
    <path class="cls-19" d="M348.4,548.89c0,4.21,3.41,7.62,7.62,7.62s7.62-3.42,7.62-7.62-3.42-7.62-7.62-7.62-7.62,3.41-7.62,7.62h0Z"/>
    <path class="cls-19" d="M316.53,413.03c0,4.21,3.41,7.62,7.62,7.62s7.62-3.42,7.62-7.62-3.42-7.62-7.62-7.62-7.62,3.41-7.62,7.62h0Z"/>
    <path class="cls-19" d="M316.53,483.93c0,4.21,3.41,7.62,7.62,7.62s7.62-3.42,7.62-7.62-3.42-7.62-7.62-7.62-7.62,3.41-7.62,7.62h0Z"/>
    <path class="cls-19" d="M316.53,521.65c0,4.21,3.41,7.62,7.62,7.62s7.62-3.42,7.62-7.62-3.42-7.62-7.62-7.62-7.62,3.41-7.62,7.62h0Z"/>
    <path class="cls-19" d="M316.53,556.65c0,4.21,3.41,7.62,7.62,7.62s7.62-3.42,7.62-7.62-3.42-7.62-7.62-7.62-7.62,3.41-7.62,7.62h0Z"/>
    <path class="cls-19" d="M347.18,265.04c0,4.21,3.41,7.62,7.62,7.62s7.62-3.41,7.62-7.62-3.41-7.62-7.62-7.62-7.62,3.42-7.62,7.62h0Z"/>
    <path class="cls-19" d="M390.72,505.12c0,4.21-3.42,7.62-7.62,7.62s-7.62-3.41-7.62-7.62,3.41-7.62,7.62-7.62h0c4.21,0,7.62,3.41,7.62,7.62h0Z"/>
    <path class="cls-19" d="M390.72,543.12c0,4.21-3.42,7.62-7.62,7.62s-7.62-3.41-7.62-7.62,3.41-7.62,7.62-7.62h0c4.21,0,7.62,3.41,7.62,7.62h0Z"/>
    <path class="cls-19" d="M390.11,589.53c0-4.21-3.41-7.62-7.62-7.62s-7.62,3.42-7.62,7.62,3.42,7.62,7.62,7.62,7.62-3.41,7.62-7.62h0Z"/>
    <path class="cls-19" d="M363.64,479.28c0-4.21-3.41-7.62-7.62-7.62s-7.62,3.42-7.62,7.62,3.42,7.62,7.62,7.62,7.62-3.41,7.62-7.62h0Z"/>
    <path class="cls-19" d="M363.64,204.28c0-4.21-3.41-7.62-7.62-7.62s-7.62,3.42-7.62,7.62,3.42,7.62,7.62,7.62,7.62-3.41,7.62-7.62h0Z"/>
    <polyline class="cls-6" points="354.18 510.52 341.03 499 306 499"/>
    <path class="cls-19" d="M363.64,512.28c0-4.21-3.41-7.62-7.62-7.62s-7.62,3.42-7.62,7.62,3.42,7.62,7.62,7.62,7.62-3.41,7.62-7.62h0Z"/>
  </g>
  <g>
    <path class="cls-23" d="M463.15,232.35c1.88-.3,3.82-.46,5.8-.46,16.97,0,30.87,11.45,32.21,26,0,.02.02.05.05.05,12.29,4.01,21.04,14.36,21.04,26.51,0,5.91-2.08,11.41-5.63,15.95-.01.02-.01.05,0,.08,3.55,4.54,5.63,10.04,5.63,15.95,0,12.15-8.75,22.5-21.04,26.51-.03,0-.04.03-.05.06-1.33,14.54-15.24,25.99-32.21,25.99-1.96,0-3.88-.15-5.75-.45-.03,0-.05-.03-.05-.06v-136.14h0Z"/>
    <path class="cls-23" d="M462,442.17c1.15-.18,2.33-.28,3.54-.28,10.34,0,18.81,6.97,19.62,15.84,0,.01.01.03.03.03,7.48,2.44,12.82,8.75,12.82,16.15,0,3.6-1.27,6.95-3.43,9.72,0,.02,0,.03,0,.05,2.16,2.77,3.43,6.11,3.43,9.72,0,7.4-5.33,13.71-12.82,16.15-.02,0-.02.02-.03.04-.81,8.86-9.28,15.83-19.62,15.83-1.19,0-2.36-.09-3.5-.27-.02,0-.03-.02-.03-.04v-82.93h0Z"/>
    <path class="cls-23" d="M462,463.17c1.15-.18,2.33-.28,3.54-.28,10.34,0,18.81,6.97,19.62,15.84,0,.01.01.03.03.03,7.48,2.44,12.82,8.75,12.82,16.15,0,3.6-1.27,6.95-3.43,9.72,0,.02,0,.03,0,.05,2.16,2.77,3.43,6.11,3.43,9.72,0,7.4-5.33,13.71-12.82,16.15-.02,0-.02.02-.03.04-.81,8.86-9.28,15.83-19.62,15.83-1.19,0-2.36-.09-3.5-.27-.02,0-.03-.02-.03-.04v-82.93h0Z"/>
    <path class="cls-2" d="M484.09,249.54l-22.94,22.95"/>
    <path class="cls-2" d="M502.56,279.07l-12.29,11.79h-29.12l-52.92,32.73"/>
    <path class="cls-6" d="M482,497h-20.85l-52.92,32.73"/>
    <path class="cls-2" d="M477,525h-15.85l-52.92,32.73"/>
    <path class="cls-2" d="M612.76,278.88l-28.72,22.12h-68.03"/>
    <path class="cls-6" d="M502.73,334.09l-12.34-20.6h-29.24l-54.07,32.86"/>
    <path class="cls-19" d="M477.23,349.98c0-3.51,2.85-6.35,6.36-6.35s6.35,2.85,6.35,6.35-2.85,6.36-6.35,6.36h0c-3.51,0-6.36-2.85-6.36-6.36h0Z"/>
    <path class="cls-19" d="M477.73,249.54c0,3.51,2.85,6.36,6.35,6.36s6.36-2.85,6.36-6.36-2.85-6.35-6.36-6.35-6.35,2.85-6.35,6.35h0Z"/>
    <path class="cls-19" d="M519.19,210.18c0,3.51,2.85,6.36,6.35,6.36s6.36-2.85,6.36-6.36-2.85-6.35-6.36-6.35-6.35,2.85-6.35,6.35h0Z"/>
    <path class="cls-19" d="M519.98,237.82c0,3.51,2.85,6.36,6.35,6.36s6.36-2.85,6.36-6.36-2.85-6.35-6.36-6.35-6.35,2.85-6.35,6.35h0Z"/>
    <path class="cls-19" d="M519.98,265.6c0,3.51,2.85,6.36,6.35,6.36s6.36-2.85,6.36-6.36-2.85-6.35-6.36-6.35-6.35,2.85-6.35,6.35h0Z"/>
    <path class="cls-19" d="M519.98,327.9c0,3.51,2.85,6.36,6.35,6.36s6.36-2.85,6.36-6.36-2.85-6.35-6.36-6.35-6.35,2.85-6.35,6.35h0Z"/>
    <path class="cls-19" d="M519.98,355.68c0,3.51,2.85,6.36,6.35,6.36s6.36-2.85,6.36-6.36-2.85-6.35-6.36-6.35-6.35,2.85-6.35,6.35h0Z"/>
    <path class="cls-19" d="M519.98,385.68c0,3.51,2.85,6.36,6.35,6.36s6.36-2.85,6.36-6.36-2.85-6.35-6.36-6.35-6.35,2.85-6.35,6.35h0Z"/>
    <path class="cls-19" d="M519.19,417.18c0,3.51,2.85,6.36,6.35,6.36s6.36-2.85,6.36-6.36-2.85-6.35-6.36-6.35-6.35,2.85-6.35,6.35h0Z"/>
    <path class="cls-19" d="M519.98,444.82c0,3.51,2.85,6.36,6.35,6.36s6.36-2.85,6.36-6.36-2.85-6.35-6.36-6.35-6.35,2.85-6.35,6.35h0Z"/>
    <path class="cls-19" d="M519.98,472.6c0,3.51,2.85,6.36,6.35,6.36s6.36-2.85,6.36-6.36-2.85-6.35-6.36-6.35-6.35,2.85-6.35,6.35h0Z"/>
    <path class="cls-19" d="M519.19,507.26c0,3.51,2.85,6.36,6.35,6.36s6.36-2.85,6.36-6.36-2.85-6.35-6.36-6.35-6.35,2.85-6.35,6.35h0Z"/>
    <path class="cls-19" d="M519.98,534.9c0,3.51,2.85,6.36,6.35,6.36s6.36-2.85,6.36-6.36-2.85-6.35-6.36-6.35-6.35,2.85-6.35,6.35h0Z"/>
    <path class="cls-19" d="M519.98,562.68c0,3.51,2.85,6.36,6.35,6.36s6.36-2.85,6.36-6.36-2.85-6.35-6.36-6.35-6.35,2.85-6.35,6.35h0Z"/>
    <path class="cls-19" d="M496.19,399.18c0,3.51,2.85,6.36,6.35,6.36s6.36-2.85,6.36-6.36-2.85-6.35-6.36-6.35-6.35,2.85-6.35,6.35h0Z"/>
    <path class="cls-19" d="M496.98,426.82c0,3.51,2.85,6.36,6.35,6.36s6.36-2.85,6.36-6.36-2.85-6.35-6.36-6.35-6.35,2.85-6.35,6.35h0Z"/>
    <path class="cls-19" d="M496.98,454.6c0,3.51,2.85,6.36,6.35,6.36s6.36-2.85,6.36-6.36-2.85-6.35-6.36-6.35-6.35,2.85-6.35,6.35h0Z"/>
    <path class="cls-19" d="M496.19,489.26c0,3.51,2.85,6.36,6.35,6.36s6.36-2.85,6.36-6.36-2.85-6.35-6.36-6.35-6.35,2.85-6.35,6.35h0Z"/>
    <path class="cls-19" d="M496.98,516.9c0,3.51,2.85,6.36,6.35,6.36s6.36-2.85,6.36-6.36-2.85-6.35-6.36-6.35-6.35,2.85-6.35,6.35h0Z"/>
    <path class="cls-19" d="M496.98,544.68c0,3.51,2.85,6.36,6.35,6.36s6.36-2.85,6.36-6.36-2.85-6.35-6.36-6.35-6.35,2.85-6.35,6.35h0Z"/>
    <path class="cls-19" d="M496.98,574.68c0,3.51,2.85,6.36,6.35,6.36s6.36-2.85,6.36-6.36-2.85-6.35-6.36-6.35-6.35,2.85-6.35,6.35h0Z"/>
    <path class="cls-19" d="M470.19,378.18c0,3.51,2.85,6.36,6.35,6.36s6.36-2.85,6.36-6.36-2.85-6.35-6.36-6.35-6.35,2.85-6.35,6.35h0Z"/>
    <path class="cls-19" d="M470.98,405.82c0,3.51,2.85,6.36,6.35,6.36s6.36-2.85,6.36-6.36-2.85-6.35-6.36-6.35-6.35,2.85-6.35,6.35h0Z"/>
    <path class="cls-19" d="M470.98,433.6c0,3.51,2.85,6.36,6.35,6.36s6.36-2.85,6.36-6.36-2.85-6.35-6.36-6.35-6.35,2.85-6.35,6.35h0Z"/>
    <path class="cls-19" d="M470.98,495.9c0,3.51,2.85,6.36,6.35,6.36s6.36-2.85,6.36-6.36-2.85-6.35-6.36-6.35-6.35,2.85-6.35,6.35h0Z"/>
    <path class="cls-19" d="M470.98,523.68c0,3.51,2.85,6.36,6.35,6.36s6.36-2.85,6.36-6.36-2.85-6.35-6.36-6.35-6.35,2.85-6.35,6.35h0Z"/>
    <path class="cls-19" d="M470.98,553.68c0,3.51,2.85,6.36,6.35,6.36s6.36-2.85,6.36-6.36-2.85-6.35-6.36-6.35-6.35,2.85-6.35,6.35h0Z"/>
    <path class="cls-19" d="M495.84,279.41c0,3.51,2.85,6.36,6.35,6.36s6.36-2.85,6.36-6.36-2.85-6.35-6.36-6.35-6.35,2.85-6.35,6.35h0Z"/>
    <path class="cls-19" d="M496.63,334.83c0,3.51,2.85,6.36,6.35,6.36s6.36-2.85,6.36-6.36-2.85-6.35-6.36-6.35-6.35,2.85-6.35,6.35h0Z"/>
    <path class="cls-19" d="M495.84,369.49c0,3.51,2.85,6.36,6.35,6.36s6.36-2.85,6.36-6.36-2.85-6.35-6.36-6.35-6.35,2.85-6.35,6.35h0Z"/>
    <path class="cls-19" d="M496.21,279.07c0,3.51,2.85,6.35,6.36,6.35s6.35-2.85,6.35-6.35-2.85-6.36-6.35-6.36-6.36,2.85-6.36,6.36h0Z"/>
  </g>
  <g>
    <circle class="cls-23" cx="628.5" cy="419.5" r="15.5"/>
    <path class="cls-23" d="M594.26,260.02c1.53-.24,3.11-.37,4.72-.37,13.8,0,25.11,9.31,26.19,21.14,0,.02.02.04.04.04,9.99,3.26,17.11,11.68,17.11,21.56,0,4.81-1.69,9.28-4.58,12.97-.01.02-.01.04,0,.06,2.89,3.69,4.58,8.16,4.58,12.97,0,9.88-7.12,18.3-17.11,21.56-.02,0-.03.03-.04.05-1.08,11.83-12.39,21.13-26.19,21.13-1.59,0-3.15-.12-4.67-.37-.02,0-.04-.03-.04-.05v-110.71h0Z"/>
    <path class="cls-23" d="M711,361.46c.99-.16,2-.24,3.04-.24,8.9,0,16.19,6.01,16.89,13.64,0,.01.01.02.03.03,6.45,2.1,11.04,7.53,11.04,13.91,0,3.1-1.09,5.98-2.95,8.37,0,.01,0,.03,0,.04,1.86,2.38,2.95,5.26,2.95,8.37,0,6.37-4.59,11.8-11.04,13.91-.01,0-.02.02-.03.03-.7,7.63-7.99,13.63-16.89,13.63-1.03,0-2.03-.08-3.02-.24-.02,0-.03-.02-.03-.03v-71.41h0Z"/>
    <path class="cls-2" d="M612.92,274l-18.66,18.66"/>
    <path class="cls-6" d="M627.94,301.02l-10.68,9.58h-25.3l-45.96,26.61"/>
    <path class="cls-6" d="M725,361l-17.22,28h-40.78"/>
    <path class="cls-6" d="M604.81,349.68h-19.41l-39.4,49.79"/>
    <path class="cls-19" d="M607.75,274c0,2.85,2.32,5.17,5.17,5.17s5.17-2.32,5.17-5.17-2.32-5.17-5.17-5.17-5.17,2.32-5.17,5.17h0Z"/>
    <path class="cls-19" d="M641.46,244.99c0,2.85,2.32,5.17,5.17,5.17s5.17-2.32,5.17-5.17-2.32-5.17-5.17-5.17-5.17,2.32-5.17,5.17h0Z"/>
    <path class="cls-19" d="M642.1,267.47c0,2.85,2.32,5.17,5.17,5.17s5.17-2.32,5.17-5.17-2.32-5.17-5.17-5.17-5.17,2.32-5.17,5.17h0Z"/>
    <path class="cls-19" d="M642.1,290.06c0,2.85,2.32,5.17,5.17,5.17s5.17-2.32,5.17-5.17-2.32-5.17-5.17-5.17-5.17,2.32-5.17,5.17h0Z"/>
    <path class="cls-19" d="M641.46,318.25c0,2.85,2.32,5.17,5.17,5.17s5.17-2.32,5.17-5.17-2.32-5.17-5.17-5.17-5.17,2.32-5.17,5.17h0Z"/>
    <path class="cls-19" d="M642.1,340.72c0,2.85,2.32,5.17,5.17,5.17s5.17-2.32,5.17-5.17-2.32-5.17-5.17-5.17-5.17,2.32-5.17,5.17h0Z"/>
    <path class="cls-19" d="M642.1,363.31c0,2.85,2.32,5.17,5.17,5.17s5.17-2.32,5.17-5.17-2.32-5.17-5.17-5.17-5.17,2.32-5.17,5.17h0Z"/>
    <path class="cls-19" d="M642.1,387.71c0,2.85,2.32,5.17,5.17,5.17s5.17-2.32,5.17-5.17-2.32-5.17-5.17-5.17-5.17,2.32-5.17,5.17h0Z"/>
    <path class="cls-19" d="M641.46,413.32c0,2.85,2.32,5.17,5.17,5.17s5.17-2.32,5.17-5.17-2.32-5.17-5.17-5.17-5.17,2.32-5.17,5.17h0Z"/>
    <path class="cls-19" d="M642.1,435.8c0,2.85,2.32,5.17,5.17,5.17s5.17-2.32,5.17-5.17-2.32-5.17-5.17-5.17-5.17,2.32-5.17,5.17h0Z"/>
    <path class="cls-19" d="M642.1,458.39c0,2.85,2.32,5.17,5.17,5.17s5.17-2.32,5.17-5.17-2.32-5.17-5.17-5.17-5.17,2.32-5.17,5.17h0Z"/>
    <path class="cls-19" d="M641.46,486.58c0,2.85,2.32,5.17,5.17,5.17s5.17-2.32,5.17-5.17-2.32-5.17-5.17-5.17-5.17,2.32-5.17,5.17h0Z"/>
    <path class="cls-19" d="M642.1,509.06c0,2.85,2.32,5.17,5.17,5.17s5.17-2.32,5.17-5.17-2.32-5.17-5.17-5.17-5.17,2.32-5.17,5.17h0Z"/>
    <path class="cls-19" d="M642.1,531.65c0,2.85,2.32,5.17,5.17,5.17s5.17-2.32,5.17-5.17-2.32-5.17-5.17-5.17-5.17,2.32-5.17,5.17h0Z"/>
    <path class="cls-19" d="M622.76,398.69c0,2.85,2.32,5.17,5.17,5.17s5.17-2.32,5.17-5.17-2.32-5.17-5.17-5.17-5.17,2.32-5.17,5.17h0Z"/>
    <path class="cls-19" d="M623.4,443.75c0,2.85,2.32,5.17,5.17,5.17s5.17-2.32,5.17-5.17-2.32-5.17-5.17-5.17-5.17,2.32-5.17,5.17h0Z"/>
    <path class="cls-19" d="M622.76,471.94c0,2.85,2.32,5.17,5.17,5.17s5.17-2.32,5.17-5.17-2.32-5.17-5.17-5.17-5.17,2.32-5.17,5.17h0Z"/>
    <path class="cls-19" d="M623.4,494.42c0,2.85,2.32,5.17,5.17,5.17s5.17-2.32,5.17-5.17-2.32-5.17-5.17-5.17-5.17,2.32-5.17,5.17h0Z"/>
    <path class="cls-19" d="M623.4,517.01c0,2.85,2.32,5.17,5.17,5.17s5.17-2.32,5.17-5.17-2.32-5.17-5.17-5.17-5.17,2.32-5.17,5.17h0Z"/>
    <path class="cls-19" d="M623.4,541.4c0,2.85,2.32,5.17,5.17,5.17s5.17-2.32,5.17-5.17-2.32-5.17-5.17-5.17-5.17,2.32-5.17,5.17h0Z"/>
    <path class="cls-19" d="M601.62,381.61c0,2.85,2.32,5.17,5.17,5.17s5.17-2.32,5.17-5.17-2.32-5.17-5.17-5.17-5.17,2.32-5.17,5.17h0Z"/>
    <path class="cls-19" d="M602.26,404.09c0,2.85,2.32,5.17,5.17,5.17s5.17-2.32,5.17-5.17-2.32-5.17-5.17-5.17-5.17,2.32-5.17,5.17h0Z"/>
    <path class="cls-19" d="M602.26,426.68c0,2.85,2.32,5.17,5.17,5.17s5.17-2.32,5.17-5.17-2.32-5.17-5.17-5.17-5.17,2.32-5.17,5.17h0Z"/>
    <path class="cls-19" d="M601.62,454.86c0,2.85,2.32,5.17,5.17,5.17s5.17-2.32,5.17-5.17-2.32-5.17-5.17-5.17-5.17,2.32-5.17,5.17h0Z"/>
    <path class="cls-19" d="M602.26,477.34c0,2.85,2.32,5.17,5.17,5.17s5.17-2.32,5.17-5.17-2.32-5.17-5.17-5.17-5.17,2.32-5.17,5.17h0Z"/>
    <path class="cls-19" d="M602.26,499.93c0,2.85,2.32,5.17,5.17,5.17s5.17-2.32,5.17-5.17-2.32-5.17-5.17-5.17-5.17,2.32-5.17,5.17h0Z"/>
    <path class="cls-19" d="M602.26,524.33c0,2.85,2.32,5.17,5.17,5.17s5.17-2.32,5.17-5.17-2.32-5.17-5.17-5.17-5.17,2.32-5.17,5.17h0Z"/>
    <path class="cls-19" d="M622.47,301.29c0,2.85,2.32,5.17,5.17,5.17s5.17-2.32,5.17-5.17-2.32-5.17-5.17-5.17-5.17,2.32-5.17,5.17h0Z"/>
    <path class="cls-19" d="M602.11,351.36c0,2.85,2.32,5.17,5.17,5.17s5.17-2.32,5.17-5.17-2.32-5.17-5.17-5.17-5.17,2.32-5.17,5.17h0Z"/>
    <path class="cls-19" d="M622.47,374.54c0,2.85,2.32,5.17,5.17,5.17s5.17-2.32,5.17-5.17-2.32-5.17-5.17-5.17-5.17,2.32-5.17,5.17h0Z"/>
    <path class="cls-19" d="M736.66,294.1c0,2.28,1.85,4.13,4.13,4.13s4.13-1.85,4.13-4.13-1.85-4.13-4.13-4.13-4.13,1.85-4.13,4.13h0Z"/>
    <path class="cls-19" d="M753.11,291.89c0,2.28,1.85,4.13,4.13,4.13s4.13-1.85,4.13-4.13-1.85-4.13-4.13-4.13-4.13,1.85-4.13,4.13h0Z"/>
    <path class="cls-19" d="M753.11,309.93c0,2.28,1.85,4.13,4.13,4.13s4.13-1.85,4.13-4.13-1.85-4.13-4.13-4.13-4.13,1.85-4.13,4.13h0Z"/>
    <path class="cls-19" d="M752.6,332.45c0,2.28,1.85,4.13,4.13,4.13s4.13-1.85,4.13-4.13-1.85-4.13-4.13-4.13-4.13,1.85-4.13,4.13h0Z"/>
    <path class="cls-19" d="M753.11,350.41c0,2.28,1.85,4.13,4.13,4.13s4.13-1.85,4.13-4.13-1.85-4.13-4.13-4.13-4.13,1.85-4.13,4.13h0Z"/>
    <path class="cls-19" d="M753.11,368.46c0,2.28,1.85,4.13,4.13,4.13s4.13-1.85,4.13-4.13-1.85-4.13-4.13-4.13-4.13,1.85-4.13,4.13h0Z"/>
    <path class="cls-19" d="M753.11,387.95c0,2.28,1.85,4.13,4.13,4.13s4.13-1.85,4.13-4.13-1.85-4.13-4.13-4.13-4.13,1.85-4.13,4.13h0Z"/>
    <path class="cls-19" d="M752.6,408.42c0,2.28,1.85,4.13,4.13,4.13s4.13-1.85,4.13-4.13-1.85-4.13-4.13-4.13-4.13,1.85-4.13,4.13h0Z"/>
    <path class="cls-19" d="M753.11,426.38c0,2.28,1.85,4.13,4.13,4.13s4.13-1.85,4.13-4.13-1.85-4.13-4.13-4.13-4.13,1.85-4.13,4.13h0Z"/>
    <path class="cls-19" d="M753.11,444.42c0,2.28,1.85,4.13,4.13,4.13s4.13-1.85,4.13-4.13-1.85-4.13-4.13-4.13-4.13,1.85-4.13,4.13h0Z"/>
    <path class="cls-19" d="M752.6,466.94c0,2.28,1.85,4.13,4.13,4.13s4.13-1.85,4.13-4.13-1.85-4.13-4.13-4.13-4.13,1.85-4.13,4.13h0Z"/>
    <path class="cls-19" d="M753.11,484.9c0,2.28,1.85,4.13,4.13,4.13s4.13-1.85,4.13-4.13-1.85-4.13-4.13-4.13-4.13,1.85-4.13,4.13h0Z"/>
    <path class="cls-19" d="M753.11,502.95c0,2.28,1.85,4.13,4.13,4.13s4.13-1.85,4.13-4.13-1.85-4.13-4.13-4.13-4.13,1.85-4.13,4.13h0Z"/>
    <path class="cls-19" d="M737.65,396.72c0,2.28,1.85,4.13,4.13,4.13s4.13-1.85,4.13-4.13-1.85-4.13-4.13-4.13-4.13,1.85-4.13,4.13h0Z"/>
    <path class="cls-19" d="M738.17,432.73c0,2.28,1.85,4.13,4.13,4.13s4.13-1.85,4.13-4.13-1.85-4.13-4.13-4.13-4.13,1.85-4.13,4.13h0Z"/>
    <path class="cls-19" d="M737.65,455.25c0,2.28,1.85,4.13,4.13,4.13s4.13-1.85,4.13-4.13-1.85-4.13-4.13-4.13-4.13,1.85-4.13,4.13h0Z"/>
    <path class="cls-19" d="M738.17,473.21c0,2.28,1.85,4.13,4.13,4.13s4.13-1.85,4.13-4.13-1.85-4.13-4.13-4.13-4.13,1.85-4.13,4.13h0Z"/>
    <path class="cls-19" d="M738.17,491.26c0,2.28,1.85,4.13,4.13,4.13s4.13-1.85,4.13-4.13-1.85-4.13-4.13-4.13-4.13,1.85-4.13,4.13h0Z"/>
    <path class="cls-19" d="M738.17,510.75c0,2.28,1.85,4.13,4.13,4.13s4.13-1.85,4.13-4.13-1.85-4.13-4.13-4.13-4.13,1.85-4.13,4.13h0Z"/>
    <path class="cls-19" d="M720.76,383.08c0,2.28,1.85,4.13,4.13,4.13s4.13-1.85,4.13-4.13-1.85-4.13-4.13-4.13-4.13,1.85-4.13,4.13h0Z"/>
    <path class="cls-19" d="M721.27,401.04c0,2.28,1.85,4.13,4.13,4.13s4.13-1.85,4.13-4.13-1.85-4.13-4.13-4.13-4.13,1.85-4.13,4.13h0Z"/>
    <path class="cls-19" d="M721.27,419.09c0,2.28,1.85,4.13,4.13,4.13s4.13-1.85,4.13-4.13-1.85-4.13-4.13-4.13-4.13,1.85-4.13,4.13h0Z"/>
    <path class="cls-19" d="M720.76,441.6c0,2.28,1.85,4.13,4.13,4.13s4.13-1.85,4.13-4.13-1.85-4.13-4.13-4.13-4.13,1.85-4.13,4.13h0Z"/>
    <path class="cls-19" d="M721.27,459.56c0,2.28,1.85,4.13,4.13,4.13s4.13-1.85,4.13-4.13-1.85-4.13-4.13-4.13-4.13,1.85-4.13,4.13h0Z"/>
    <path class="cls-19" d="M721.27,477.61c0,2.28,1.85,4.13,4.13,4.13s4.13-1.85,4.13-4.13-1.85-4.13-4.13-4.13-4.13,1.85-4.13,4.13h0Z"/>
    <path class="cls-19" d="M721.27,497.1c0,2.28,1.85,4.13,4.13,4.13s4.13-1.85,4.13-4.13-1.85-4.13-4.13-4.13-4.13,1.85-4.13,4.13h0Z"/>
    <path class="cls-19" d="M737.42,318.9c0,2.28,1.85,4.13,4.13,4.13s4.13-1.85,4.13-4.13-1.85-4.13-4.13-4.13-4.13,1.85-4.13,4.13h0Z"/>
    <path class="cls-19" d="M737.42,377.43c0,2.28,1.85,4.13,4.13,4.13s4.13-1.85,4.13-4.13-1.85-4.13-4.13-4.13-4.13,1.85-4.13,4.13h0Z"/>
    <path class="cls-19" d="M737.65,355.72c0,2.28,1.85,4.13,4.13,4.13s4.13-1.85,4.13-4.13-1.85-4.13-4.13-4.13-4.13,1.85-4.13,4.13h0Z"/>
    <path class="cls-19" d="M737.42,336.43c0,2.28,1.85,4.13,4.13,4.13s4.13-1.85,4.13-4.13-1.85-4.13-4.13-4.13-4.13,1.85-4.13,4.13h0Z"/>
    <path class="cls-19" d="M720.65,361.72c0,2.28,1.85,4.13,4.13,4.13s4.13-1.85,4.13-4.13-1.85-4.13-4.13-4.13-4.13,1.85-4.13,4.13h0Z"/>
    <path class="cls-19" d="M720.42,342.43c0,2.28,1.85,4.13,4.13,4.13s4.13-1.85,4.13-4.13-1.85-4.13-4.13-4.13-4.13,1.85-4.13,4.13h0Z"/>
    <path class="cls-19" d="M720.65,316.72c0,2.28,1.85,4.13,4.13,4.13s4.13-1.85,4.13-4.13-1.85-4.13-4.13-4.13-4.13,1.85-4.13,4.13h0Z"/>
    <path class="cls-19" d="M720.42,297.43c0,2.28,1.85,4.13,4.13,4.13s4.13-1.85,4.13-4.13-1.85-4.13-4.13-4.13-4.13,1.85-4.13,4.13h0Z"/>
    <path class="cls-19" d="M622.77,301.02c0,2.85,2.32,5.17,5.17,5.17s5.17-2.32,5.17-5.17-2.32-5.17-5.17-5.17-5.17,2.32-5.17,5.17h0Z"/>
    <line class="cls-8" x1="627.61" y1="423.03" x2="546" y2="494"/>
    <path class="cls-19" d="M623.4,421.16c0,2.85,2.32,5.17,5.17,5.17s5.17-2.32,5.17-5.17-2.32-5.17-5.17-5.17-5.17,2.32-5.17,5.17h0Z"/>
    <path class="cls-6" d="M725,419h-13.37l-44.63,32.73"/>
    <line class="cls-6" x1="721.27" y1="401.04" x2="667" y2="401.04"/>
  </g>
  <line class="cls-8" x1="408.27" y1="398.32" x2="477" y2="468.26"/>
  <path class="cls-19" d="M470.19,468.26c0,3.51,2.85,6.36,6.35,6.36s6.36-2.85,6.36-6.36-2.85-6.35-6.36-6.35-6.35,2.85-6.35,6.35h0Z"/>
  <g>
    <line class="cls-6" x1="771" y1="378.95" x2="795.05" y2="378.95"/>
    <polygon class="cls-25" points="812.19 378.95 788.04 388.82 793.77 378.95 788.04 369.08 812.19 378.95"/>
  </g>
  <g>
    <line class="cls-6" x1="200.1" y1="386.52" x2="281.96" y2="386.52"/>
    <polygon class="cls-25" points="299.1 386.52 274.95 396.39 280.68 386.52 274.95 376.65 299.1 386.52"/>
  </g>
  <g>
    <path class="cls-25" d="M427.59,234c13.85,0,25.07-11.23,25.07-25.07s-11.23-25.07-25.07-25.07-25.07,11.22-25.07,25.07,11.23,25.07,25.07,25.07Z"/>
    <path class="cls-22" d="M426.24,221.71c-.53,0-1.03-.2-1.4-.58l-8.73-8.73c-.78-.78-.78-2.03,0-2.79.78-.76,2.03-.78,2.79,0l7.14,7.14,10.08-13.03c.67-.87,1.91-1.03,2.77-.36.87.67,1.03,1.91.35,2.77l-11.46,14.81c-.34.45-.87.72-1.44.76-.02,0-.06.01-.1.01Z"/>
    <path class="cls-23" d="M426.24,218.31c-.53,0-1.03-.2-1.4-.58l-8.73-8.73c-.78-.78-.78-2.03,0-2.79.78-.76,2.03-.78,2.79,0l7.14,7.14,10.08-13.03c.67-.87,1.91-1.03,2.77-.35.87.67,1.03,1.91.35,2.77l-11.46,14.81c-.34.45-.87.72-1.44.76-.02,0-.06.01-.1.01Z"/>
  </g>
  <g>
    <path class="cls-25" d="M564.02,234c13.85,0,25.07-11.23,25.07-25.07s-11.23-25.07-25.07-25.07-25.07,11.22-25.07,25.07,11.23,25.07,25.07,25.07Z"/>
    <path class="cls-22" d="M562.66,221.71c-.53,0-1.03-.2-1.4-.58l-8.73-8.73c-.78-.78-.78-2.03,0-2.79.78-.76,2.03-.78,2.79,0l7.14,7.14,10.08-13.03c.67-.87,1.91-1.03,2.77-.36.87.67,1.03,1.91.35,2.77l-11.46,14.81c-.34.45-.87.72-1.44.76-.02,0-.06.01-.1.01Z"/>
    <path class="cls-23" d="M562.66,218.31c-.53,0-1.03-.2-1.4-.58l-8.73-8.73c-.78-.78-.78-2.03,0-2.79.78-.76,2.03-.78,2.79,0l7.14,7.14,10.08-13.03c.67-.87,1.91-1.03,2.77-.35.87.67,1.03,1.91.35,2.77l-11.46,14.81c-.34.45-.87.72-1.44.76-.02,0-.06.01-.1.01Z"/>
  </g>
  <g>
    <path class="cls-25" d="M677.42,234c13.85,0,25.07-11.23,25.07-25.07s-11.23-25.07-25.07-25.07-25.07,11.22-25.07,25.07,11.23,25.07,25.07,25.07Z"/>
    <path class="cls-22" d="M676.06,221.71c-.53,0-1.03-.2-1.4-.58l-8.73-8.73c-.78-.78-.78-2.03,0-2.79.78-.76,2.03-.78,2.79,0l7.14,7.14,10.08-13.03c.67-.87,1.91-1.03,2.77-.36.87.67,1.03,1.91.35,2.77l-11.46,14.81c-.34.45-.87.72-1.44.76-.02,0-.06.01-.1.01Z"/>
    <path class="cls-23" d="M676.06,218.31c-.53,0-1.03-.2-1.4-.58l-8.73-8.73c-.78-.78-.78-2.03,0-2.79.78-.76,2.03-.78,2.79,0l7.14,7.14,10.08-13.03c.67-.87,1.91-1.03,2.77-.35.87.67,1.03,1.91.35,2.77l-11.46,14.81c-.34.45-.87.72-1.44.76-.02,0-.06.01-.1.01Z"/>
  </g>
  <g>
    <path class="cls-25" d="M791.42,234c13.85,0,25.07-11.23,25.07-25.07s-11.23-25.07-25.07-25.07-25.07,11.22-25.07,25.07,11.23,25.07,25.07,25.07Z"/>
    <path class="cls-22" d="M790.06,221.71c-.53,0-1.03-.2-1.4-.58l-8.73-8.73c-.78-.78-.78-2.03,0-2.79.78-.76,2.03-.78,2.79,0l7.14,7.14,10.08-13.03c.67-.87,1.91-1.03,2.77-.36.87.67,1.03,1.91.35,2.77l-11.46,14.81c-.34.45-.87.72-1.44.76-.02,0-.06.01-.1.01Z"/>
    <path class="cls-23" d="M790.06,218.31c-.53,0-1.03-.2-1.4-.58l-8.73-8.73c-.78-.78-.78-2.03,0-2.79.78-.76,2.03-.78,2.79,0l7.14,7.14,10.08-13.03c.67-.87,1.91-1.03,2.77-.35.87.67,1.03,1.91.35,2.77l-11.46,14.81c-.34.45-.87.72-1.44.76-.02,0-.06.01-.1.01Z"/>
  </g>
  <text class="cls-24" transform="translate(14.64 459.61)"><tspan x="0" y="0">Labels</tspan></text>
  <g>
    <path class="cls-19" d="M256.35,58.32c23.92-2.82,45.55,14.22,48.37,38.09,2.82,23.88-15.56,45.62-39.42,48.43-23.86,2.81-44.29-14.36-47.11-38.24-2.82-23.88,14.24-45.46,38.17-48.28Z"/>
    <g>
      <polyline class="cls-11" points="251.14 125.46 251.14 103.64 242.26 103.64"/>
      <polyline class="cls-11" points="257.98 117.96 257.98 92.05 248.41 92.05"/>
      <line class="cls-11" x1="264.81" y1="105.69" x2="264.81" y2="83.19"/>
      <polyline class="cls-11" points="271.64 125.46 271.64 97.5 280.52 97.5"/>
      <ellipse class="cls-11" cx="238.16" cy="103.64" rx="4.1" ry="4.09"/>
      <ellipse class="cls-11" cx="244.31" cy="92.05" rx="4.1" ry="4.09"/>
      <ellipse class="cls-11" cx="264.81" cy="79.09" rx="4.1" ry="4.09"/>
      <ellipse class="cls-11" cx="284.62" cy="97.5" rx="4.1" ry="4.09"/>
      <line class="cls-11" x1="264.81" y1="111.14" x2="264.81" y2="122.05"/>
    </g>
  </g>
  <g>
    <path class="cls-25" d="M233.29,156c13.85,0,25.07-11.23,25.07-25.07s-11.23-25.07-25.07-25.07-25.07,11.22-25.07,25.07,11.23,25.07,25.07,25.07Z"/>
    <path class="cls-22" d="M231.93,143.71c-.53,0-1.03-.2-1.4-.58l-8.73-8.73c-.78-.78-.78-2.03,0-2.79.78-.76,2.03-.78,2.79,0l7.14,7.14,10.08-13.03c.67-.87,1.91-1.03,2.77-.36.87.67,1.03,1.91.35,2.77l-11.46,14.81c-.34.45-.87.72-1.44.76-.02,0-.06.01-.1.01Z"/>
    <path class="cls-23" d="M231.93,140.31c-.53,0-1.03-.2-1.4-.58l-8.73-8.73c-.78-.78-.78-2.03,0-2.79.78-.76,2.03-.78,2.79,0l7.14,7.14,10.08-13.03c.67-.87,1.91-1.03,2.77-.35.87.67,1.03,1.91.35,2.77l-11.46,14.81c-.34.45-.87.72-1.44.76-.02,0-.06.01-.1.01Z"/>
  </g>
  <g>
    <g>
      <path class="cls-18" d="M954.59,331.48l-116.1.08c-4.61,0-8.35,4.47-8.35,10l.06,83.86c0,5.51,3.74,9.99,8.36,9.99l116.12-.08c4.61,0,8.36-4.47,8.35-10l-.06-83.86c-.02-5.53-3.77-9.99-8.38-9.99Z"/>
      <path class="cls-15" d="M842.23,347.26c1.99,0,3.61-1.62,3.61-3.61s-1.62-3.61-3.61-3.61-3.61,1.62-3.61,3.61,1.62,3.61,3.61,3.61Z"/>
      <path class="cls-15" d="M853.02,347.25c1.99,0,3.61-1.62,3.61-3.61s-1.62-3.61-3.61-3.61-3.61,1.62-3.61,3.61,1.62,3.61,3.61,3.61Z"/>
      <path class="cls-17" d="M863.8,347.24c1.99,0,3.61-1.62,3.61-3.61s-1.62-3.61-3.61-3.61-3.61,1.62-3.61,3.61,1.62,3.61,3.61,3.61Z"/>
    </g>
    <text class="cls-24" transform="translate(845.64 400.19)"><tspan x="0" y="0">=</tspan></text>
    <g>
      <path class="cls-10" d="M909.7,387.5l1.36,1.36,1.36-1.36h-2.71Z"/>
      <path class="cls-10" d="M911.06,395.37l-2.17,5.43c-1.09,2.44-3.8,3.8-6.51,2.98"/>
      <path class="cls-10" d="M911.06,395.37l2.17,5.43c1.09,2.44,3.8,3.8,6.51,2.98"/>
      <path class="cls-10" d="M898.85,383.44l4.07,1.36"/>
      <path class="cls-10" d="M923.26,383.44l-4.07,1.36"/>
      <path class="cls-10" d="M880.68,387.5l10.58,2.71"/>
      <path class="cls-10" d="M880.68,401.07l10.85-2.71"/>
      <path class="cls-10" d="M941.44,387.5l-10.58,2.71"/>
      <path class="cls-10" d="M941.44,401.07l-10.85-2.71"/>
      <path class="cls-10" d="M919.47,417.34c10.85-3.53,18.72-13.83,18.72-25.77,0-5.43-1.63-10.31-4.34-14.65,5.43-5.15,2.98-15.19,2.98-15.19,0,0-9.77-.27-13.83,5.43-3.53-1.63-7.6-2.71-11.94-2.71s-8.41,1.09-11.94,2.71c-4.07-5.7-13.83-5.43-13.83-5.43,0,0-2.71,10.04,2.98,15.19-2.71,4.34-4.34,9.22-4.34,14.65,0,11.94,7.87,22.24,18.72,25.77"/>
    </g>
  </g>
  <rect class="cls-25" x="16" y="344" width="221" height="79"/>
  <g>
    <path class="cls-3" d="M124.01,384.43l1,1,1-1h-2Z"/>
    <path class="cls-3" d="M125.01,390.23l-1.6,4c-.8,1.8-2.8,2.8-4.8,2.2"/>
    <path class="cls-3" d="M125.01,390.23l1.6,4c.8,1.8,2.8,2.8,4.8,2.2"/>
    <path class="cls-3" d="M116.01,381.43l3,1"/>
    <path class="cls-3" d="M134.01,381.43l-3,1"/>
    <path class="cls-3" d="M102.61,384.43l7.8,2"/>
    <path class="cls-3" d="M102.61,394.43l8-2"/>
    <path class="cls-3" d="M147.41,384.43l-7.8,2"/>
    <path class="cls-3" d="M147.41,394.43l-8-2"/>
    <path class="cls-3" d="M131.21,406.43c8-2.6,13.8-10.2,13.8-19,0-4-1.2-7.6-3.2-10.8,4-3.8,2.2-11.2,2.2-11.2,0,0-7.2-.2-10.2,4-2.6-1.2-5.6-2-8.8-2s-6.2.8-8.8,2c-3-4.2-10.2-4-10.2-4,0,0-2,7.4,2.2,11.2-2,3.2-3.2,6.8-3.2,10.8,0,8.8,5.8,16.4,13.8,19"/>
  </g>
  <g>
    <path class="cls-3" d="M56.18,396.44c2.21,0,4-1.34,4-3s-1.79-3-4-3-4,1.34-4,3,1.79,3,4,3Z"/>
    <path class="cls-3" d="M63.65,403.44c-1.87-.11-3.64-.87-5-2.15-1.36-1.28-2.24-3-2.46-4.85-.23,1.86-1.1,3.57-2.46,4.85-1.36,1.28-3.13,2.04-5,2.15"/>
    <path class="cls-3" d="M70.84,385.85c-1.5,13.88-7.7,20.58-14.66,20.58s-13.16-6.7-14.66-20.58"/>
    <path class="cls-3" d="M65.65,373.74s2.37,14.2,8.28,13.01c4.92-.99,8.28-17.75,1.18-20.11-3.8-1.47-8.02-1.47-11.82,0-4.6-1.61-9.6-1.61-14.2,0-3.81-1.47-8.03-1.47-11.83,0-7.1,2.37-3.74,19.13,1.18,20.11,5.91,1.19,8.28-13.01,8.28-13.01"/>
    <path class="cls-7" d="M50.68,384.44c-.28,0-.5-.22-.5-.5s.22-.5.5-.5"/>
    <path class="cls-7" d="M50.68,384.44c.28,0,.5-.22.5-.5s-.22-.5-.5-.5"/>
    <g>
      <path class="cls-7" d="M61.68,384.44c-.28,0-.5-.22-.5-.5s.22-.5.5-.5"/>
      <path class="cls-7" d="M61.68,384.44c.28,0,.5-.22.5-.5s-.22-.5-.5-.5"/>
    </g>
  </g>
  <g>
    <path class="cls-3" d="M191.19,398.92l3,3,3-3"/>
    <path class="cls-3" d="M213.43,365.42c-5.8-5.8-15.24,2-19.24,12-4-10-13.45-17.8-19.24-12-5.12,5.11-.58,11.02,10.15,16.76-2.11,2.41-3.2,5.56-3.01,8.76,0,2.69-5.38,5.38-5.38,9.41.29,4.33,3.74,7.78,8.08,8.07,4.45,0,9.41-4.03,9.41-6.72,0,2.69,4.96,6.72,9.4,6.72,4.33-.29,7.77-3.74,8.07-8.07,0-4.03-5.38-6.72-5.38-9.4.18-3.2-.9-6.35-3.01-8.76,10.74-5.75,15.27-11.66,10.15-16.77Z"/>
    <path class="cls-3" d="M178.72,405.59l-5.88,2.35"/>
    <path class="cls-3" d="M176.81,401.18l-3.97.79"/>
    <path class="cls-3" d="M209.65,405.59l5.88,2.35"/>
    <path class="cls-3" d="M211.56,401.18l3.97.79"/>
    <path class="cls-3" d="M188.4,391.22c0,.55.45,1,1,1s1-.45,1-1-.45-1-1-1-1,.45-1,1"/>
    <path class="cls-3" d="M197.97,391.22c0,.55.45,1,1,1s1-.45,1-1-.45-1-1-1-1,.45-1,1"/>
    <path class="cls-3" d="M173.5,372.55s-.34-3.88,3.47-3.56c2.77.45,5.34,1.73,7.37,3.66,2.19,1.52,3.93,3.59,5.05,6.01l-4.3,3.52"/>
    <path class="cls-3" d="M214.87,372.55s.34-3.88-3.47-3.56c-2.77.45-5.34,1.73-7.37,3.66-2.19,1.52-3.93,3.59-5.05,6.01l4.3,3.52"/>
  </g>
</svg>